<svg xmlns="http://www.w3.org/2000/svg" width="543.9" height="215.14" viewBox="0 0 543.9 215.14">
  <title>logo</title>
  <g>
    <g>
      <path d="M290.2,164.84h8.2l10.7,31.7,14-32.7h.4l14.1,32.7,10.4-31.7h7.7l-17.4,50.3h-.4l-14.7-34.6-15,34.6h-.4Z" style="fill: #c62032"/>
      <path d="M357.8,189.64c0-14.7,11.4-25.5,25.6-25.5s25.6,10.8,25.6,25.5-11.4,25.5-25.6,25.5S357.8,204.34,357.8,189.64Zm43.2,0c0-10.5-7.2-18.4-17.5-18.4s-17.5,7.9-17.5,18.4,7.2,18.4,17.5,18.4S401,200.14,401,189.64Z" style="fill: #c62032"/>
      <path d="M451.9,214.44h-9.3l-8.5-12c-1.1.1-2.3.2-3.6.2h-4.9v11.8h-7.8v-49.6h12.7c13.7,0,21.2,7.5,21.2,19,0,7.7-3.4,13.6-9.9,16.6Zm-21.6-18.5c9.6,0,13.4-4.5,13.4-12.1s-3.9-12-13.4-12h-4.6V196h4.6Z" style="fill: #c62032"/>
      <path d="M464.6,164.84h7.8v42.7h21.9v6.9H464.6v-49.6Z" style="fill: #c62032"/>
      <path d="M503.7,164.84h14c16.2,0,26.1,10.1,26.1,24.8s-9.9,24.8-26.1,24.8h-14v-49.6Zm13.6,42.7c12.9,0,18.5-7.4,18.5-17.9s-5.6-17.9-18.5-17.9h-5.8v35.8h5.8Z" style="fill: #c62032"/>
    </g>
    <path d="M15.1,148.74H0l41.7-97.2h.8l41.9,97.2H68.6l-5.5-13.3H20.5ZM42,84.44l-15.9,37.7H57.5C57.6,122.14,42,84.44,42,84.44Z" style="fill: #71382e"/>
    <path d="M165.7,148.74H147.9l-16.2-23.1a50.27,50.27,0,0,1-6.9.4h-9.4v22.7h-15V53.54h24.4c26.2,0,40.6,14.4,40.6,36.4,0,14.7-6.6,26-19,31.8Zm-41.4-35.6c18.3,0,25.8-8.7,25.8-23.2s-7.6-23.1-25.8-23.1h-8.8v46.3Z" style="fill: #71382e"/>
    <path d="M180.7,101.14c0-28.1,21.8-48.9,49.1-48.9s49.1,20.7,49.1,48.9S257.1,150,229.8,150,180.7,129.24,180.7,101.14Zm82.8,0c0-20.2-13.9-35.3-33.6-35.3s-33.6,15.1-33.6,35.3,13.9,35.3,33.6,35.3S263.5,121.34,263.5,101.14Z" style="fill: #71382e"/>
    <path d="M290.5,101.14c0-28.1,21.6-48.9,48.9-48.9,17.6,0,28.3,6.3,36.1,15.1l-10.4,9.8c-5.7-6.3-12.3-11.4-26.2-11.4-19.3,0-32.9,15.1-32.9,35.3s13.7,35.3,35.4,35.3c10.4,0,17.6-2.4,23.1-6v-10.8H339.1v-13.3h39.3v31.2c-8,6.6-19,12.5-37,12.5C312.2,149.94,290.5,129.24,290.5,101.14Z" style="fill: #71382e"/>
    <path d="M474.6,148.74H459.5l41.7-97.2h.8l41.9,97.2H528.1l-5.5-13.3H480Zm26.9-64.3-15.8,37.7h31.4C517.2,122.14,501.5,84.44,501.5,84.44Z" style="fill: #71382e"/>
    <g>
      <path d="M430.7,148.54H415.9c0-.3,3.9-35.5-7.1-63.4-12.7-32.3-26.8-46.9-26.9-47l11.2-10.9c.7.6,16.7,15.5,31,51.9C436.6,111,430.7,148.54,430.7,148.54Z" style="fill: #c62032"/>
      <path d="M422.1,148.44c-.2-1.3-1.4-31.2,13.3-61.2,15.6-31.8,24.7-37.6,25.7-38.2l6.5,4s-11.2,8.5-24.8,37.8c-13.4,28.8-10.9,57.5-10.9,57.8l-6.2-.1Z" style="fill: #c62032"/>
    </g>
    <path d="M489,58.64s-.5-3.4-2.9-13.6a111,111,0,0,0-5.4-17.2h0a108.27,108.27,0,0,0-17.9,2.6c-10.2,2.3-13.5,3.3-13.5,3.3l10.8,10.4,10.2.1,4.5,9.1Z" style="fill: #eebc46"/>
    <path d="M405.3,1.34s-4.9-.6-20-1.2a166.45,166.45,0,0,0-26,.9h0a163.9,163.9,0,0,0-3.2,25.8c-.7,15.1-.5,20-.5,20l18.5-11.1,4.1-14.1,14.4-2.8Z" style="fill: #eebc46"/>
  </g>
</svg>
